<svg version="1.2" xmlns="http://www.w3.org/2000/svg" viewBox="0 0 38 56" width="38" height="56"><defs><clipPath clipPathUnits="userSpaceOnUse" id="cp1"><path d="m-305-3241h1789v3659h-1789z"/></clipPath></defs><style>.a{fill:#737780}</style><g clip-path="url(#cp1)"><path fill-rule="evenodd" class="a" d="m37.2 49.6v1c0 2.5-2.1 4.6-4.6 4.6h-29.4c-4.5 0-2-8.3 4.4-9.1-1.6-2.1-1.2-2.1-1.2-20.6 0-2.1 0.3-4.1 1-6 0.5-1.2 1.4-2.2 2.6-2.7 1.5-0.6 0.8 0.7 1.9-3.2-0.6-0.5-1-1.2-1-1.9q0.2-1.7-0.3-3.4c-1.4-7.2 8.3-11 12-4.7l0.6 1c0.7 1.7 1 3.7 0.6 5.6-0.3 1.5-0.8 1.7-1.3 3.9-0.3 1.7-1.9 2.9-3.6 2.8l-0.8-0.1-0.6 2.1c2.9 2.3 2.9 5 3.3 7.7 8.3-1.2 5.8-0.5 11.3-3.2 2.1-1.1 4 4.9 0.2 7.8-3.4 2.5-6.2 4.3-10.3 5.2 0.2 1.2 1 2.3 2.2 2.7l7.9 3.1c3 1.2 5.1 4.1 5.1 7.4zm-2.3 0c0-2.3-1.5-4.5-3.7-5.3l-7.8-3c-2-0.8-3.3-2.5-3.6-4.5q-1.3 0.1-2.6 0.1c-2.9 0-5.3-2-5.7-4.9l-0.6-4c0-0.7 0.4-1.2 1-1.3 0.7-0.1 1.2 0.3 1.3 1l0.6 4c0.2 1.7 1.7 3 3.4 3 4.2-0.1 8.3-1.4 11.7-3.9l-1.5-2.9c-8.1 1.2-7.1 1.1-7.6 1.1-2.7 0 0.4-6.6-4.9-9-2.6-1.2-3-1.5-4-1.1-3 1.3-2.2 9.3-2.2 23.7 0 1.9 1.5 3.5 3.4 3.5h10.3c0.6 0 1.1 0.5 1.1 1.1 0 0.6-0.5 1.1-1.1 1.1h-11.5v4.6h21.7c1.3 0 2.3-1 2.3-2.3zm-13.3-42.6l-8.4 3.7v1c1.6 1.6 3.7 2.6 5.9 2.9 1.5 0.1 0.9-1.4 2.2-4 0.5-1.2 0.5-2.4 0.3-3.6zm-5.7-4.1c-1.9 0.5-3.1 2.2-3.2 4.1q0.1 0.7 0.2 1.3c8.4-3.7 7.8-3.4 7.8-3.5-1-1.6-3-2.4-4.8-1.9zm-2 12.2c-0.6 2.1-0.6 1.6-0.3 1.8l1.9 0.8 0.4-1.6q-1.1-0.4-2-1zm-5.2 37.8v-4.6c-2.7 0-5.1 1.9-5.5 4.6zm23.4-27l-2.5 1.3c1.3 2.7 1.1 2.4 1.3 2.2 1.1-0.8 1.5-2.2 1.2-3.5z"/></g></svg>