<svg version="1.2" xmlns="http://www.w3.org/2000/svg" viewBox="0 0 27 27" width="27" height="27"><defs><clipPath clipPathUnits="userSpaceOnUse" id="cp1"><path d="m-1148-3326h1440v5254h-1440z"/></clipPath></defs><style>.a{fill:#f5f9fc}</style><g clip-path="url(#cp1)"><g style="opacity:.3"><path class="a" d="m1.7 13.8c0.8 0 1.5 0.6 1.6 1.4 0.8 5.5 5.8 9.2 11.3 8.4 5.4-0.8 9.1-5.8 8.4-11.3-0.8-5.4-5.9-9.1-11.3-8.3-1.9 0.2-3.6 1-5 2.2l1.2 1.3c0.5 0.4 0.5 1.1 0 1.5-0.2 0.2-0.5 0.4-0.8 0.4h-5c-0.6 0-1.1-0.5-1.1-1.1v-5.1c0-0.6 0.5-1.1 1.1-1.1 0.3 0 0.6 0.1 0.8 0.3l1.4 1.5c5.5-4.8 13.8-4.3 18.7 1.1 4.8 5.5 4.3 13.8-1.1 18.7-5.5 4.8-13.9 4.3-18.7-1.2-1.7-1.9-2.8-4.3-3.2-6.8-0.1-0.9 0.5-1.8 1.4-1.9q0.1 0 0.3 0z"/></g></g></svg>